{
  "accessors": [
    {
      "bufferView": 2,
      "componentType": 5126,
      "count": 58026,
      "max": [
        1.221686601638794,
        0.9956130385398865,
        0.9972806572914124
      ],
      "min": [
        -0.9969580173492432,
        -1.0499286651611328,
        -1.0
      ],
      "type": "VEC3"
    },
    {
      "bufferView": 2,
      "byteOffset": 696312,
      "componentType": 5126,
      "count": 58026,
      "max": [
        0.9998171925544739,
        0.9995215535163879,
        0.9999997615814209
      ],
      "min": [
        -0.9998779892921448,
        -0.9998953342437744,
        -1.0
      ],
      "type": "VEC3"
    },
    {
      "bufferView": 1,
      "componentType": 5126,
      "count": 58026,
      "max": [
        0.9672260880470276,
        0.9994961023330688
      ],
      "min": [
        0.0005039320094510913,
        0.0005039320094510913
      ],
      "type": "VEC2"
    },
    {
      "bufferView": 0,
      "componentType": 5125,
      "count": 82926,
      "type": "SCALAR"
    },
    {
      "bufferView": 2,
      "byteOffset": 1392624,
      "componentType": 5126,
      "count": 749,
      "max": [
        3.088676929473877,
        1.7419705390930176,
        -0.7047246694564819
      ],
      "min": [
        -1.8749539852142334,
        -1.0409464836120605,
        -19.09198570251465
      ],
      "type": "VEC3"
    },
    {
      "bufferView": 2,
      "byteOffset": 1401612,
      "componentType": 5126,
      "count": 749,
      "max": [
        0.9965335726737976,
        0.9980370402336121,
        0.9567925333976746
      ],
      "min": [
        -0.9943307638168335,
        -0.9930747151374817,
        -0.9994161128997803
      ],
      "type": "VEC3"
    },
    {
      "bufferView": 1,
      "byteOffset": 464208,
      "componentType": 5126,
      "count": 749,
      "max": [
        0.9930631518363953,
        0.9722849130630493
      ],
      "min": [
        0.0021032129880040884,
        0.0011904140701517463
      ],
      "type": "VEC2"
    },
    {
      "bufferView": 0,
      "byteOffset": 331704,
      "componentType": 5125,
      "count": 1656,
      "type": "SCALAR"
    },
    {
      "bufferView": 2,
      "byteOffset": 1410600,
      "componentType": 5126,
      "count": 1021,
      "max": [
        1.0549609661102295,
        0.9278995394706726,
        0.9011713862419128
      ],
      "min": [
        -1.0541521310806274,
        -0.9811810255050659,
        -1.1146879196166992
      ],
      "type": "VEC3"
    },
    {
      "bufferView": 2,
      "byteOffset": 1422852,
      "componentType": 5126,
      "count": 1021,
      "max": [
        0.9994916915893555,
        0.997567892074585,
        0.9995956420898438
      ],
      "min": [
        -0.997373104095459,
        -0.9966177940368652,
        -0.9814953207969666
      ],
      "type": "VEC3"
    },
    {
      "bufferView": 1,
      "byteOffset": 470200,
      "componentType": 5126,
      "count": 1021,
      "max": [
        0.9874488711357117,
        0.8129280209541321
      ],
      "min": [
        0.004487198311835527,
        0.008566835895180702
      ],
      "type": "VEC2"
    },
    {
      "bufferView": 0,
      "byteOffset": 338328,
      "componentType": 5125,
      "count": 3804,
      "type": "SCALAR"
    }
  ],
  "asset": {
    "extras": {
      "author": "negar (https://sketchfab.com/negar)",
      "license": "CC-BY-4.0 (http://creativecommons.org/licenses/by/4.0/)",
      "source": "https://sketchfab.com/3d-models/peach-d3ee1a643ddd45dc93695fcba465143f",
      "title": "Peach"
    },
    "generator": "Sketchfab-12.65.0",
    "version": "2.0"
  },
  "bufferViews": [
    {
      "buffer": 0,
      "byteLength": 353544,
      "name": "floatBufferViews",
      "target": 34963
    },
    {
      "buffer": 0,
      "byteLength": 478368,
      "byteOffset": 353544,
      "byteStride": 8,
      "name": "floatBufferViews",
      "target": 34962
    },
    {
      "buffer": 0,
      "byteLength": 1435104,
      "byteOffset": 831912,
      "byteStride": 12,
      "name": "floatBufferViews",
      "target": 34962
    }
  ],
  "buffers": [
    {
      "byteLength": 2267016,
      "uri": "scene.bin"
    }
  ],
  "materials": [
    {
      "doubleSided": true,
      "name": "StemColor",
      "pbrMetallicRoughness": {
        "baseColorFactor": [
          0.0936352,
          0.0363472,
          0.0183762,
          1.0
        ],
        "metallicFactor": 0.0,
        "roughnessFactor": 0.9894392471348729
      }
    },
    {
      "doubleSided": true,
      "name": "LeafColor",
      "pbrMetallicRoughness": {
        "baseColorFactor": [
          0.191202,
          0.270498,
          0.0512695,
          1.0
        ],
        "metallicFactor": 0.0,
        "roughnessFactor": 0.9468237604820262
      }
    },
    {
      "doubleSided": true,
      "name": "PeachColor",
      "pbrMetallicRoughness": {
        "baseColorFactor": [
          1.0,
          0.227297,
          0.0750973,
          1.0
        ],
        "metallicFactor": 0.0,
        "roughnessFactor": 0.9148986427761596
      }
    }
  ],
  "meshes": [
    {
      "name": "stem_StemColor_0",
      "primitives": [
        {
          "attributes": {
            "NORMAL": 1,
            "POSITION": 0,
            "TEXCOORD_0": 2
          },
          "indices": 3,
          "material": 0,
          "mode": 4
        }
      ]
    },
    {
      "name": "Leaves_LeafColor_0",
      "primitives": [
        {
          "attributes": {
            "NORMAL": 5,
            "POSITION": 4,
            "TEXCOORD_0": 6
          },
          "indices": 7,
          "material": 1,
          "mode": 4
        }
      ]
    },
    {
      "name": "Peach_PeachColor_0",
      "primitives": [
        {
          "attributes": {
            "NORMAL": 9,
            "POSITION": 8,
            "TEXCOORD_0": 10
          },
          "indices": 11,
          "material": 2,
          "mode": 4
        }
      ]
    }
  ],
  "nodes": [
    {
      "children": [
        1
      ],
      "matrix": [
        1.0,
        0.0,
        0.0,
        0.0,
        0.0,
        2.220446049250313e-16,
        -1.0,
        0.0,
        0.0,
        1.0,
        2.220446049250313e-16,
        0.0,
        0.0,
        0.0,
        0.0,
        1.0
      ],
      "name": "Sketchfab_model"
    },
    {
      "children": [
        2
      ],
      "matrix": [
        1.0,
        0.0,
        0.0,
        0.0,
        0.0,
        0.0,
        1.0,
        0.0,
        0.0,
        -1.0,
        0.0,
        0.0,
        0.0,
        0.0,
        0.0,
        1.0
      ],
      "name": "7cd0435decf541e48458c4912d6696d3.fbx"
    },
    {
      "children": [
        3,
        5,
        7
      ],
      "name": "RootNode"
    },
    {
      "children": [
        4
      ],
      "matrix": [
        4.000000476837158,
        0.0,
        0.0,
        0.0,
        0.0,
        -6.516831836871283e-07,
        -4.000002861022896,
        0.0,
        0.0,
        36.49999618530225,
        -5.946604176308776e-06,
        0.0,
        0.0,
        84.57740783691406,
        -4.7975993156433105,
        1.0
      ],
      "name": "stem"
    },
    {
      "mesh": 0,
      "name": "stem_StemColor_0"
    },
    {
      "children": [
        6
      ],
      "matrix": [
        42.17614429282354,
        6.616852834974794,
        10.224953347571685,
        0.0,
        5.693438992513392,
        -1.5074670176650544,
        -22.508916103350575,
        0.0,
        -0.43473499996011444,
        3.280442843253733,
        -0.32966032463104955,
        0.0,
        -35.046913146972656,
        103.15547180175781,
        -8.60136604309082,
        1.0
      ],
      "name": "Leaves"
    },
    {
      "mesh": 1,
      "name": "Leaves_LeafColor_0"
    },
    {
      "children": [
        8
      ],
      "matrix": [
        100.0,
        0.0,
        0.0,
        0.0,
        0.0,
        -1.629206793918314e-05,
        -99.99999999999868,
        0.0,
        0.0,
        99.99999999999868,
        -1.629206793918314e-05,
        0.0,
        0.0,
        0.0,
        0.0,
        1.0
      ],
      "name": "Peach"
    },
    {
      "mesh": 2,
      "name": "Peach_PeachColor_0"
    }
  ],
  "scene": 0,
  "scenes": [
    {
      "name": "Sketchfab_Scene",
      "nodes": [
        0
      ]
    }
  ]
}
